<svg id="Layer_1" data-name="Layer 1" xmlns="http://www.w3.org/2000/svg" viewBox="0 0 1080 1080"><defs><style>.cls-1{fill:#fff200;}.cls-2{fill:#444745;}</style></defs><rect class="cls-1" width="1080" height="1080"/><path class="cls-2" d="M203.08,205.35s135-.44,194.95-.43H567.25l-11.86,9.38c-11.39,1.09-22.94.6-34.33,1.75-26.42,2.69-41.15,20.54-38.94,46.91q13.67,163.11,27.55,326.21c4.07,47.79,8.38,95.56,12.83,146.17,3-5.65,5-9.05,6.61-12.64C580.86,607.82,632.91,493.08,684,377.91c10.79-24.31,19.07-49.89,26.42-75.48,3.29-11.44,3-24.55,1.57-36.58-3.84-32.32-25.1-50.6-57.62-51.25-11-.22-39.44,0-39.44,0l14.26-9.38c14-.6,246.15-.38,246.15-.38l-7.39,9.4c-50.5-3.76-76.61,30.46-98.61,66.69-22.61,37.24-41.56,76.83-60.35,116.22C653.07,514.28,598,631.84,542.66,749.24c-18.1,38.37-36.35,76.66-54.15,115.16-3.41,7.38-7.18,10.89-16,10.77q-64.37-.79-128.74,0c-9.06.09-12.34-2.26-13.27-11.77q-15.24-155.26-31.4-310.44-12.48-121.62-25.33-243.19c-2.09-19.83-3.91-39.76-7.52-59.34-5-27-16.35-35.54-44-35.83-5.45-.06-10.9,0-16.35,0C205.39,212.62,203.08,205.35,203.08,205.35Z"/></svg>