<svg id="Layer_1" data-name="Layer 1" xmlns="http://www.w3.org/2000/svg" viewBox="0 0 710 420"><defs><style>.cls-1{fill:#fff200;}.cls-2{fill:#444745;}</style></defs><rect class="cls-1" width="710" height="420"/><path class="cls-2" d="M500.68,289.68c-5.6,8.7-10.59,16.47-15.61,24.22-6.07,9.37-12.15,18.73-21.47,25.36a38.34,38.34,0,0,1-28,6.83c-14.16-1.82-23.39-13.85-22.22-29.52,1.64-21.88,25.54-39.38,47.93-25.6,6.35,3.92,10.13,10,12.36,17,.75,2.35,1.29,4.77,2.25,8.4,3.57-5.53,6.56-10.23,9.63-14.88,3.95-6,8-11.83,11.93-17.83.71-1.11,1.42-2.77,1.12-3.91-5.55-21-11-42.12-17.1-63-1.59-5.47-4.84-10.6-8-15.42-4.39-6.68-9.41-7.95-16.86-5.36-12.18,4.26-21.32,12.74-30,21.8-1,1.06-1.15,3.37-1,5.06,2,25.94-3,50.26-16,73-25.32,44.1-74.92,58.81-116.91,46.67-26.61-7.7-45.69-33.17-47.45-61.24-3.35-53.4,34.75-102.23,84.12-115.53,21.18-5.71,42.2-5.64,62.11,5.21,12.41,6.77,21.24,17,27.15,29.68.65,1.4.34,4.22-.67,5.26-14.6,15.1-29.6,29.77-48.39,39.78-1.47.78-3,1.46-4.51,2.12-.74.33-1.54.51-3.21,1,.76-4.42,1.56-8.21,2.06-12q3.24-25,6.31-50a25.31,25.31,0,0,0,0-4c-.38-8.66-3.53-14-9.23-15.59-8.56-2.44-17.47.19-21.37,7.63a141.29,141.29,0,0,0-9.58,23.47c-3.5,11.24-7.07,22.6-4.42,34.74,1.57,7.22,3.23,14.35,8.57,19.87a18.26,18.26,0,0,0,16.83,5.48c16.17-2.54,29.92-10.23,42-20.79,18.5-16.25,36.33-33.25,54.78-49.57,11.11-9.82,22.92-18.84,37.34-23.5,18.11-5.86,33.72-.17,44,15.85,6.88,10.67,10.5,22.56,13.39,34.74.18.76.41,1.51.94,3.45,3.07-5.27,5.58-9.64,8.16-14,7.49-12.6,14.74-25.38,25.76-35.38,10.12-9.18,21.88-13,35.46-10.34a23.8,23.8,0,0,1,18.7,20.32c1.91,15.75-5.14,29.62-17.93,35.26-13.48,5.94-29.95,1.77-40.14-10.36-2.66-3.16-4.86-6.69-7.92-11-3.51,5.76-6.88,11.13-10.09,16.6-2.44,4.17-4.19,8.82-7.1,12.6-3.5,4.56-3.18,8.9-1.92,14,4.85,19.72,9.4,39.51,18.38,57.91a74,74,0,0,0,5,8.65c7.86,11.82,17.08,14.15,29.51,7,4.87-2.78,9.2-6.5,13.86-9.85,2.09,1.66,3.24,3.45,1,6.12-14.14,16.54-30,30.75-51.26,37.52-22,7-38.18.93-49.13-19.51-5-9.43-8-20-11.85-30.07C501.55,293.09,501.33,292,500.68,289.68ZM320.09,240.05c-.46,1.39-.74,2-.86,2.62-3.84,20.76-8,41.47-11.33,62.32-1.36,8.63-1.16,17.58-.91,26.36.14,4.82,2.66,8.93,8.05,10.2,9.95,2.34,18.28-.62,22.7-9.89a211,211,0,0,0,11-29.33c3.51-11.54,6-23.38,9-35.22C332.77,266.29,327.77,262.74,320.09,240.05Z"/><path class="cls-2" d="M78.08,80c1.81-.51,3.62-1.45,5.44-1.46,23.49-.09,47-.06,70.49-.06h64.87c.24.53.47,1.06.71,1.58-1.29.73-2.53,2-3.88,2.1-4.46.43-9,.24-13.46.69-10.36,1-16.13,8-15.27,18.4q5.36,64,10.8,127.92c1.6,18.74,3.29,37.47,5,57.32,1.16-2.21,2-3.55,2.59-5,20.29-45.05,40.7-90,60.74-135.21a227.51,227.51,0,0,0,10.36-29.6c1.29-4.48,1.17-9.63.61-14.34-1.5-12.68-9.84-19.84-22.59-20.1-4.3-.09-8.61,0-12.91,0-.23-.54-.45-1.08-.68-1.61,1.24-.73,2.45-2,3.71-2.07,5.49-.24,11-.12,16.49-.12h74.49a11.19,11.19,0,0,1,5.55,1.32c-1,.81-2,2.39-2.9,2.33-19.8-1.48-30,11.94-38.67,26.15-8.86,14.6-16.29,30.13-23.66,45.58-21.93,45.94-43.51,92-65.23,138.08C203.63,307,196.47,322,189.49,337.12c-1.34,2.89-2.82,4.26-6.29,4.22q-25.24-.31-50.49,0c-3.55,0-4.84-.89-5.2-4.62q-6-60.88-12.32-121.74-4.89-47.69-9.93-95.37c-.82-7.77-1.53-15.59-3-23.27-2-10.59-6.41-13.94-17.25-14-2.13,0-4.27,0-6.41,0Z"/></svg>