<svg id="Layer_1" data-name="Layer 1" xmlns="http://www.w3.org/2000/svg" viewBox="0 0 1080 1080"><defs><style>.cls-1{fill:#fff200;}.cls-2{fill:#444745;}</style></defs><rect class="cls-1" width="1080" height="1080"/><path class="cls-2" d="M739.2,628c-7.8,12.1-14.73,22.91-21.72,33.69-8.45,13-16.91,26.06-29.88,35.29-11.72,8.33-24.83,11.3-38.88,9.5-19.71-2.52-32.55-19.27-30.91-41.07,2.27-30.44,35.53-54.79,66.67-35.61,8.85,5.44,14.1,13.85,17.21,23.62,1,3.27,1.79,6.64,3.13,11.68,5-7.68,9.12-14.23,13.4-20.69,5.49-8.3,11.17-16.47,16.59-24.82,1-1.53,2-3.85,1.56-5.43-7.72-29.29-15.32-58.61-23.79-87.69-2.22-7.61-6.73-14.74-11.15-21.46-6.12-9.28-13.11-11.06-23.46-7.45-17,5.92-29.67,17.72-41.71,30.33-1.41,1.47-1.59,4.69-1.41,7,2.83,36.11-4.14,69.94-22.28,101.51-35.23,61.36-104.25,81.82-162.67,64.93-37-10.71-63.56-46.15-66-85.2-4.67-74.3,48.34-142.24,117-160.74,29.48-7.95,58.72-7.85,86.42,7.25,17.26,9.41,29.56,23.6,37.78,41.29.9,1.95.48,5.87-.93,7.32-20.32,21-41.18,41.42-67.34,55.35-2,1.08-4.15,2-6.27,2.95-1,.45-2.14.7-4.47,1.43,1.07-6.16,2.18-11.42,2.87-16.75q4.51-34.74,8.78-69.53a33.18,33.18,0,0,0,0-5.55c-.53-12.05-4.91-19.44-12.84-21.69-11.91-3.4-24.3.26-29.73,10.62a196,196,0,0,0-13.33,32.65c-4.88,15.63-9.84,31.45-6.16,48.34,2.19,10,4.5,20,11.93,27.63,6.4,6.61,14.25,9.07,23.42,7.63,22.5-3.53,41.63-14.23,58.37-28.93,25.75-22.6,50.56-46.26,76.23-69,15.45-13.67,31.88-26.21,52-32.7,25.2-8.15,46.91-.23,61.27,22.05,9.57,14.84,14.6,31.39,18.63,48.35.25,1.05.57,2.1,1.31,4.8,4.27-7.34,7.77-13.42,11.35-19.45C820.59,492,830.68,474.19,846,460.27c14.07-12.76,30.44-18.11,49.32-14.38a33.13,33.13,0,0,1,26,28.28c2.66,21.91-7.15,41.2-25,49.05-18.76,8.27-41.67,2.46-55.85-14.41-3.7-4.39-6.76-9.32-11-15.25-4.88,8-9.58,15.48-14,23.1-3.4,5.8-5.83,12.27-9.88,17.53-4.88,6.34-4.43,12.37-2.67,19.51,6.74,27.44,13.07,55,25.56,80.58a106.09,106.09,0,0,0,6.89,12c10.94,16.44,23.78,19.68,41.07,9.8,6.77-3.87,12.79-9,19.28-13.71,2.91,2.31,4.51,4.8,1.35,8.51-19.67,23-41.77,42.79-71.32,52.21-30.56,9.73-53.12,1.29-68.36-27.15-7-13.12-11.1-27.83-16.49-41.83C740.41,632.72,740.11,631.21,739.2,628ZM487.93,558.93a35.74,35.74,0,0,0-1.19,3.64c-5.36,28.89-11.2,57.7-15.77,86.71-1.89,12-1.61,24.46-1.27,36.67.19,6.71,3.7,12.43,11.2,14.2,13.84,3.26,25.43-.86,31.58-13.76a290.86,290.86,0,0,0,15.28-40.81c4.88-16.06,8.42-32.53,12.59-49C505.58,595.43,498.61,590.49,487.93,558.93Z"/><path class="cls-2" d="M151.2,336.25c2.53-.71,5.05-2,7.57-2,32.69-.13,65.38-.08,98.07-.08h90.27l1,2.2c-1.79,1-3.52,2.74-5.4,2.92-6.21.59-12.51.32-18.72.95-14.42,1.47-22.46,11.21-21.25,25.6q7.45,89,15,178c2.22,26.08,4.57,52.14,7,79.75,1.62-3.08,2.73-4.93,3.61-6.89C356.6,554,385,491.37,412.88,428.53c5.88-13.26,10.4-27.22,14.41-41.18,1.79-6.25,1.63-13.4.85-20-2.09-17.63-13.69-27.6-31.43-28-6-.12-12,0-18,0-.32-.74-.63-1.49-.95-2.24,1.72-1,3.41-2.8,5.17-2.87,7.63-.33,15.29-.16,22.94-.17q51.82,0,103.64,0a15.36,15.36,0,0,1,7.72,1.83c-1.34,1.13-2.77,3.33-4,3.24-27.55-2-41.8,16.62-53.8,36.39-12.34,20.32-22.68,41.92-32.93,63.41C396,502.94,366,567.08,335.76,631.14,325.88,652.08,315.92,673,306.21,694c-1.86,4-3.91,5.94-8.75,5.88-23.41-.3-46.83-.27-70.25,0-4.94,0-6.73-1.24-7.24-6.43Q211.66,608.68,202.84,524,196,457.66,189,391.32c-1.14-10.82-2.13-21.69-4.1-32.38-2.72-14.73-8.92-19.39-24-19.55-3,0-5.95,0-8.92,0C151.73,338.34,151.47,337.29,151.2,336.25Z"/></svg>